<svg width="12" height="15" viewBox="0 0 12 15" fill="none" xmlns="http://www.w3.org/2000/svg">
<g clip-path="url(#clip0_40_1895)">
<path d="M4.26696 0.158211C4.47589 -0.0556565 4.8 -0.0527268 5.00893 0.16114C5.74821 0.919929 6.44196 1.73731 7.09018 2.62208C7.38482 2.2002 7.71964 1.74024 8.08125 1.36524C8.29286 1.14845 8.61964 1.14845 8.83125 1.36817C9.75804 2.33497 10.5429 3.61231 11.0946 4.8252C11.6384 6.02052 12 7.2422 12 8.10352C12 11.8418 9.32679 15 6 15C2.63571 15 0 11.8389 0 8.10059C0 6.97559 0.476786 5.60157 1.21607 4.2422C1.96339 2.86231 3.01875 1.42384 4.26696 0.158211ZM6.04554 12.1875C6.72321 12.1875 7.32321 11.9824 7.88839 11.5723C9.01607 10.7109 9.31875 8.98829 8.64107 7.63477C8.52054 7.3711 8.2125 7.35352 8.03839 7.57618L7.36339 8.43458C7.18661 8.65724 6.86786 8.65138 6.70179 8.41993C6.25982 7.8047 5.46964 6.70606 5.01964 6.08204C4.85089 5.84766 4.52946 5.84473 4.35804 6.07911C3.45268 7.32423 2.99732 8.10938 2.99732 8.99122C3 10.9981 4.35536 12.1875 6.04554 12.1875Z" fill="#F3A358"/>
</g>
<defs>
<clipPath id="clip0_40_1895">
<rect width="12" height="15" fill="white"/>
</clipPath>
</defs>
</svg>
